<?xml version="1.0" standalone="no"?>
<!DOCTYPE svg PUBLIC "-//W3C//DTD SVG 20010904//EN"
 "http://www.w3.org/TR/2001/REC-SVG-20010904/DTD/svg10.dtd">
<svg version="1.0" xmlns="http://www.w3.org/2000/svg"
 width="128.000000pt" height="128.000000pt" viewBox="0 0 128.000000 128.000000"
 preserveAspectRatio="xMidYMid meet">
<metadata>
Created by potrace 1.16, written by Peter Selinger 2001-2019
</metadata>
<g transform="translate(0.000000,128.000000) scale(0.100000,-0.100000)"
fill="#000000" stroke="none">
<path d="M22 1067 c-31 -33 -31 -116 -1 -143 20 -18 45 -19 619 -19 574 0 599
1 619 19 31 28 30 114 -2 144 l-23 22 -595 0 -596 0 -21 -23z"/>
<path d="M45 728 c-33 -18 -45 -40 -45 -84 0 -56 7 -72 41 -89 24 -13 117 -15
599 -15 603 0 617 1 634 45 8 21 8 89 0 110 -17 44 -31 45 -636 45 -395 -1
-579 -4 -593 -12z"/>
<path d="M50 373 c-37 -14 -50 -36 -50 -88 0 -41 5 -56 23 -73 l23 -22 595 0
596 0 21 23 c31 33 31 116 1 143 -20 18 -46 19 -608 21 -322 1 -593 -1 -601
-4z"/>
</g>
</svg>
