<?xml version="1.0" standalone="no"?>
<!DOCTYPE svg PUBLIC "-//W3C//DTD SVG 20010904//EN"
 "http://www.w3.org/TR/2001/REC-SVG-20010904/DTD/svg10.dtd">
<svg version="1.0" xmlns="http://www.w3.org/2000/svg"
 width="731.000000pt" height="946.000000pt" viewBox="0 0 731.000000 946.000000"
 preserveAspectRatio="xMidYMid meet">
<metadata>
Created by potrace 1.16, written by Peter Selinger 2001-2019
</metadata>
<g transform="translate(0.000000,946.000000) scale(0.100000,-0.100000)"
fill="#000000" stroke="none">
<path d="M3327 9445 c-305 -42 -592 -179 -817 -391 -315 -298 -525 -776 -595
-1359 -21 -171 -30 -527 -17 -690 l10 -129 -30 -86 c-70 -202 -156 -353 -343
-600 -190 -253 -295 -431 -295 -503 0 -83 40 -120 248 -227 129 -66 214 -137
246 -205 23 -48 19 -111 -10 -180 -90 -210 -106 -273 -85 -337 15 -47 54 -81
135 -121 l67 -34 -26 -17 c-40 -26 -77 -117 -83 -200 -7 -120 12 -190 95 -340
42 -75 43 -176 4 -402 -35 -205 -40 -345 -16 -439 38 -146 136 -264 277 -333
174 -86 319 -98 639 -53 319 45 510 58 661 43 265 -25 424 -95 570 -251 148
-158 210 -307 338 -811 93 -369 130 -601 130 -820 -1 -274 -53 -382 -211 -431
-120 -37 -329 -16 -545 56 -306 103 -955 407 -1439 675 -710 393 -1263 795
-1534 1115 -232 274 -298 493 -205 684 55 112 239 278 521 469 234 159 330
274 341 407 8 102 -39 168 -137 195 -100 27 -188 -10 -449 -183 -201 -135
-341 -248 -468 -378 -198 -205 -287 -387 -301 -615 -18 -301 113 -605 409
-949 407 -472 1182 -1011 2113 -1470 921 -453 1449 -600 1819 -505 412 105
590 549 501 1247 -71 555 -253 1178 -785 2688 -490 1390 -676 1974 -834 2611
-196 792 -249 1375 -165 1814 49 250 151 420 299 495 106 53 145 60 320 59
150 0 173 -3 255 -28 459 -140 1263 -588 1863 -1040 300 -226 528 -431 697
-629 275 -319 391 -596 341 -811 -64 -272 -320 -456 -1166 -841 -440 -201
-776 -339 -1143 -469 -191 -68 -209 -77 -242 -121 -96 -125 -58 -348 69 -406
55 -25 90 -24 188 7 168 53 727 266 1023 391 233 97 530 257 984 527 347 207
370 222 481 335 188 190 272 395 272 661 1 194 -37 342 -142 555 -203 415
-607 849 -1205 1298 -621 466 -1462 916 -1934 1037 -190 48 -485 63 -694 35z"/>
</g>
</svg>
